<?xml version="1.0" ?><svg id="Слой_1" style="enable-background:new 0 0 100 100;" version="1.1" viewBox="0 0 100 100" xml:space="preserve" xmlns="http://www.w3.org/2000/svg" xmlns:xlink="http://www.w3.org/1999/xlink"><style type="text/css">
	.st0{fill:#F0AD4E;}
	.st1{fill:#286191;}
	.st2{opacity:0.15;fill:#010202;}
	.st3{fill:#30B0D5;}
	.st4{fill:#FFFFFF;}
	.st5{fill:#449D43;}
	.st6{fill:#D9544F;}
	.st7{fill:#010202;}
</style><path class="st3" d="M50,5C25.1,5,5,25.1,5,50c0,24.9,20.1,45,45,45s45-20.1,45-45C95,25.1,74.9,5,50,5z"/><path class="st2" d="M57.1,27.9L42.6,52.6L35,45l-1.3,3.8l-1.3,7l3.4,8.4l28.5,28.5c13.5-4.5,24.2-15.3,28.5-28.9L57.1,27.9z"/><path class="st4" d="M65,45v5c0,8.3-6.7,15-15,15s-15-6.7-15-15v-5h-5v5c0,10.2,7.7,18.6,17.5,19.8V75h5v-5.2  C62.3,68.6,70,60.2,70,50v-5H65z"/><path class="st4" d="M50,25c2.8,0,5.3,1.1,7.1,2.9S60,32.2,60,35v15c0,5.5-4.5,10-10,10s-10-4.5-10-10V35C40,29.5,44.5,25,50,25z"/></svg>