<?xml version="1.0" ?><!DOCTYPE svg  PUBLIC '-//W3C//DTD SVG 1.1//EN'  'http://www.w3.org/Graphics/SVG/1.1/DTD/svg11.dtd'><svg height="114px" style="enable-background:new 0 0 114 114;" version="1.1" viewBox="0 0 114 114" width="114px" xml:space="preserve" xmlns="http://www.w3.org/2000/svg" xmlns:xlink="http://www.w3.org/1999/xlink"><g id="gear"><g><g><circle cx="55" cy="55" r="55" style="fill:#64DD17;"/><g><circle cx="55.001" cy="35.944" r="15.946" style="fill:#FFFFFF;"/><path d="M25.154,82.332h59.691v-9.299C80.877,63.381,69.018,59.138,55,59.138      c-14.016,0-25.875,4.243-29.846,13.896V82.332z" style="fill:#FFFFFF;"/></g></g><g><g><circle cx="82" cy="82" r="28" style="fill:#5C6BC0;"/><path d="M82,54c15.463,0,28,12.537,28,28s-12.537,28-28,28S54,97.463,54,82S66.537,54,82,54 M82,50      c-17.645,0-32,14.355-32,32s14.355,32,32,32s32-14.355,32-32S99.645,50,82,50L82,50z" style="fill:#FFFFFF;"/></g><g><path d="M101.385,85.633v-7.268h-4.488c-0.379-1.549-0.988-3.002-1.795-4.327l3.176-3.174l-5.141-5.141      L89.963,68.9c-1.326-0.808-2.779-1.418-4.328-1.795v-4.488h-7.27v4.488c-1.545,0.377-3,0.988-4.324,1.795l-3.176-3.177      l-5.139,5.141l3.176,3.175c-0.809,1.324-1.418,2.778-1.797,4.326h-4.488v7.268h4.488c0.379,1.549,0.988,3.004,1.797,4.327      l-3.176,3.177l5.139,5.138l3.176-3.175c1.324,0.807,2.779,1.417,4.324,1.794v4.489h7.27v-4.489      c1.549-0.377,3.002-0.986,4.328-1.794l3.174,3.175l5.141-5.138l-3.176-3.176c0.807-1.324,1.416-2.777,1.795-4.328H101.385z       M82,88.863c-3.791,0-6.863-3.073-6.863-6.863c0-3.793,3.072-6.865,6.863-6.865c3.793,0,6.865,3.072,6.865,6.865      C88.865,85.79,85.793,88.863,82,88.863z" style="fill:#FFFFFF;"/><path d="M95.102,74.038l3.176-3.174l-2.479-2.479l-8.855,8.855c1.188,1.234,1.922,2.91,1.922,4.76      c0,3.79-3.072,6.863-6.865,6.863c-1.85,0-3.525-0.734-4.758-1.922l-8.855,8.855l2.479,2.478l3.176-3.175      c1.324,0.807,2.779,1.417,4.324,1.794v4.489h7.27v-4.489c1.549-0.377,3.002-0.986,4.328-1.794l3.174,3.175l5.141-5.138      l-3.176-3.176c0.807-1.324,1.416-2.777,1.795-4.328h4.488v-7.268h-4.488C96.518,76.816,95.908,75.363,95.102,74.038z" style="fill:#E2E4E5;"/></g></g></g></g><g id="Layer_1"/></svg>