<?xml version="1.0" ?><!DOCTYPE svg  PUBLIC '-//W3C//DTD SVG 1.1//EN'  'http://www.w3.org/Graphics/SVG/1.1/DTD/svg11.dtd'><svg enable-background="new 0 0 512 512" height="512px" id="Слой_1" version="1.1" viewBox="0 0 512 512" width="512px" xml:space="preserve" xmlns="http://www.w3.org/2000/svg" xmlns:xlink="http://www.w3.org/1999/xlink"><g id="lock_1"><g><path d="M512,256.008C512,397.398,397.391,512,256,512S0.008,397.398,0,256C0.008,114.625,114.609,0.008,256,0    C397.391,0.008,512,114.625,512,256.008z" fill="#EC5565"/><path d="M187.555,250.266l-47.945,157.344l104.094,104.078c4.07,0.195,8.18,0.313,12.297,0.313    c119.664,0,220.133-82.094,248.18-193.031L312.586,127.367l-92.438,13.797L187.555,250.266z" fill="#D94453"/></g><g><path d="M209.57,221.594l-0.094-36.406c0-12.406,4.844-24.094,13.641-32.891    c8.781-8.773,20.453-13.625,32.883-13.625s24.109,4.852,32.891,13.625c8.789,8.797,13.633,20.484,13.633,32.891v36.406h34.383    v-36.406c0-44.664-36.227-80.891-80.906-80.891s-80.891,36.227-80.891,80.891v36.406H209.57z" fill="#E5E8EC"/><rect fill="#F4F6F9" height="186.117" width="232.57" x="139.727" y="221.594"/><path d="M267.641,326.266l-0.008,30.461h-23.25v-30.461c-7.883-4.188-13.273-12.469-13.273-22.016    c0-13.727,11.164-24.875,24.891-24.875c13.742,0,24.891,11.141,24.891,24.875C280.891,313.797,275.5,322.078,267.641,326.266z" fill="#CBD0D8"/></g></g></svg>